<mxfile host="app.diagrams.net" modified="2024-02-27T18:54:25.809Z" agent="Mozilla/5.0 (Windows NT 10.0; Win64; x64) AppleWebKit/537.36 (KHTML, like Gecko) Chrome/121.0.0.0 Safari/537.36" version="23.1.7" etag="1-2nfv5m9-Z5pqyIw3mw" type="device">
  <diagram id="poPrSYytdVKjHBRNOalh" name="PÃ¡gina-1">
    <mxGraphModel dx="2010" dy="2330" grid="1" gridSize="10" guides="1" tooltips="1" connect="1" arrows="1" fold="1" page="1" pageScale="1" pageWidth="1600" pageHeight="1200" math="0" shadow="0">
      <root>
        <mxCell id="0" />
        <mxCell id="1" parent="0" />
        <mxCell id="f4y5HSsuFUhtfZBOtpe1-10" value="" style="image;html=1;image=img/lib/clip_art/computers/Server_Tower_128x128.png" vertex="1" parent="1">
          <mxGeometry x="376.51" y="-100" width="80" height="80" as="geometry" />
        </mxCell>
        <mxCell id="f4y5HSsuFUhtfZBOtpe1-41" style="edgeStyle=orthogonalEdgeStyle;rounded=0;orthogonalLoop=1;jettySize=auto;html=1;exitX=0.5;exitY=1;exitDx=0;exitDy=0;" edge="1" parent="1" source="f4y5HSsuFUhtfZBOtpe1-14" target="f4y5HSsuFUhtfZBOtpe1-17">
          <mxGeometry relative="1" as="geometry" />
        </mxCell>
        <mxCell id="f4y5HSsuFUhtfZBOtpe1-14" value="" style="image;aspect=fixed;perimeter=ellipsePerimeter;html=1;align=center;shadow=0;dashed=0;spacingTop=3;image=img/lib/active_directory/internet_cloud.svg;" vertex="1" parent="1">
          <mxGeometry x="368.89" y="-320" width="95.24" height="60" as="geometry" />
        </mxCell>
        <mxCell id="f4y5HSsuFUhtfZBOtpe1-42" style="edgeStyle=orthogonalEdgeStyle;rounded=0;orthogonalLoop=1;jettySize=auto;html=1;exitX=0.5;exitY=1;exitDx=0;exitDy=0;" edge="1" parent="1" source="f4y5HSsuFUhtfZBOtpe1-17" target="f4y5HSsuFUhtfZBOtpe1-10">
          <mxGeometry relative="1" as="geometry" />
        </mxCell>
        <mxCell id="f4y5HSsuFUhtfZBOtpe1-17" value="" style="image;html=1;image=img/lib/clip_art/networking/Modem_128x128.png" vertex="1" parent="1">
          <mxGeometry x="380.95" y="-230" width="71.11" height="80" as="geometry" />
        </mxCell>
        <mxCell id="f4y5HSsuFUhtfZBOtpe1-47" style="edgeStyle=orthogonalEdgeStyle;rounded=0;orthogonalLoop=1;jettySize=auto;html=1;exitX=0.5;exitY=1;exitDx=0;exitDy=0;entryX=0.379;entryY=0;entryDx=0;entryDy=0;entryPerimeter=0;" edge="1" parent="1" source="f4y5HSsuFUhtfZBOtpe1-10">
          <mxGeometry relative="1" as="geometry">
            <mxPoint x="416.95500000000015" y="30" as="targetPoint" />
          </mxGeometry>
        </mxCell>
        <mxCell id="f4y5HSsuFUhtfZBOtpe1-48" value="" style="image;html=1;image=img/lib/clip_art/computers/Printer_128x128.png" vertex="1" parent="1">
          <mxGeometry x="220" y="110" width="58.5" height="80" as="geometry" />
        </mxCell>
        <mxCell id="f4y5HSsuFUhtfZBOtpe1-49" value="" style="image;html=1;image=img/lib/clip_art/computers/Printer_128x128.png" vertex="1" parent="1">
          <mxGeometry x="290" y="115" width="58.5" height="70" as="geometry" />
        </mxCell>
        <mxCell id="f4y5HSsuFUhtfZBOtpe1-50" value="" style="image;html=1;image=img/lib/clip_art/computers/Printer_128x128.png" vertex="1" parent="1">
          <mxGeometry x="147" y="120" width="58.5" height="70" as="geometry" />
        </mxCell>
        <mxCell id="f4y5HSsuFUhtfZBOtpe1-74" value="" style="image;points=[];aspect=fixed;html=1;align=center;shadow=0;dashed=0;image=img/lib/allied_telesis/computer_and_terminals/Personal_Computer_Wireless.svg;" vertex="1" parent="1">
          <mxGeometry x="620" y="-20" width="63" height="64.2" as="geometry" />
        </mxCell>
        <mxCell id="f4y5HSsuFUhtfZBOtpe1-75" value="" style="image;points=[];aspect=fixed;html=1;align=center;shadow=0;dashed=0;image=img/lib/allied_telesis/computer_and_terminals/Personal_Computer_Wireless.svg;" vertex="1" parent="1">
          <mxGeometry x="620" y="45.8" width="63" height="64.2" as="geometry" />
        </mxCell>
        <mxCell id="f4y5HSsuFUhtfZBOtpe1-76" value="" style="image;points=[];aspect=fixed;html=1;align=center;shadow=0;dashed=0;image=img/lib/allied_telesis/computer_and_terminals/Personal_Computer_Wireless.svg;" vertex="1" parent="1">
          <mxGeometry x="620" y="-80" width="63" height="64.2" as="geometry" />
        </mxCell>
        <mxCell id="f4y5HSsuFUhtfZBOtpe1-77" value="" style="image;points=[];aspect=fixed;html=1;align=center;shadow=0;dashed=0;image=img/lib/allied_telesis/computer_and_terminals/Personal_Computer_Wireless.svg;" vertex="1" parent="1">
          <mxGeometry x="130" y="-130" width="63" height="64.2" as="geometry" />
        </mxCell>
        <mxCell id="f4y5HSsuFUhtfZBOtpe1-78" value="" style="image;points=[];aspect=fixed;html=1;align=center;shadow=0;dashed=0;image=img/lib/allied_telesis/computer_and_terminals/Personal_Computer_Wireless.svg;" vertex="1" parent="1">
          <mxGeometry x="130" y="-65.8" width="63" height="64.2" as="geometry" />
        </mxCell>
        <mxCell id="f4y5HSsuFUhtfZBOtpe1-79" value="" style="image;points=[];aspect=fixed;html=1;align=center;shadow=0;dashed=0;image=img/lib/allied_telesis/computer_and_terminals/Personal_Computer_Wireless.svg;" vertex="1" parent="1">
          <mxGeometry x="130" width="63" height="64.2" as="geometry" />
        </mxCell>
        <mxCell id="f4y5HSsuFUhtfZBOtpe1-116" value="" style="image;points=[];aspect=fixed;html=1;align=center;shadow=0;dashed=0;image=img/lib/allied_telesis/computer_and_terminals/Personal_Computer_Wireless.svg;" vertex="1" parent="1">
          <mxGeometry x="130" y="-194" width="63" height="64.2" as="geometry" />
        </mxCell>
        <mxCell id="f4y5HSsuFUhtfZBOtpe1-117" value="" style="image;points=[];aspect=fixed;html=1;align=center;shadow=0;dashed=0;image=img/lib/allied_telesis/computer_and_terminals/Personal_Computer_Wireless.svg;" vertex="1" parent="1">
          <mxGeometry x="130" y="-260" width="63" height="64.2" as="geometry" />
        </mxCell>
        <mxCell id="f4y5HSsuFUhtfZBOtpe1-119" value="" style="endArrow=none;html=1;rounded=0;" edge="1" parent="1">
          <mxGeometry width="50" height="50" relative="1" as="geometry">
            <mxPoint x="320" y="30" as="sourcePoint" />
            <mxPoint x="320" y="-240" as="targetPoint" />
          </mxGeometry>
        </mxCell>
        <mxCell id="f4y5HSsuFUhtfZBOtpe1-120" value="" style="endArrow=none;html=1;rounded=0;" edge="1" parent="1">
          <mxGeometry width="50" height="50" relative="1" as="geometry">
            <mxPoint x="320" y="30" as="sourcePoint" />
            <mxPoint x="380" y="60" as="targetPoint" />
          </mxGeometry>
        </mxCell>
        <mxCell id="f4y5HSsuFUhtfZBOtpe1-121" value="" style="endArrow=classic;html=1;rounded=0;" edge="1" parent="1">
          <mxGeometry width="50" height="50" relative="1" as="geometry">
            <mxPoint x="320" y="-240" as="sourcePoint" />
            <mxPoint x="210" y="-240" as="targetPoint" />
          </mxGeometry>
        </mxCell>
        <mxCell id="f4y5HSsuFUhtfZBOtpe1-122" value="" style="endArrow=classic;html=1;rounded=0;" edge="1" parent="1">
          <mxGeometry width="50" height="50" relative="1" as="geometry">
            <mxPoint x="320" y="-160" as="sourcePoint" />
            <mxPoint x="210" y="-160" as="targetPoint" />
          </mxGeometry>
        </mxCell>
        <mxCell id="f4y5HSsuFUhtfZBOtpe1-123" value="" style="endArrow=classic;html=1;rounded=0;" edge="1" parent="1">
          <mxGeometry width="50" height="50" relative="1" as="geometry">
            <mxPoint x="320" y="-80" as="sourcePoint" />
            <mxPoint x="210" y="-80" as="targetPoint" />
          </mxGeometry>
        </mxCell>
        <mxCell id="f4y5HSsuFUhtfZBOtpe1-124" value="" style="endArrow=classic;html=1;rounded=0;" edge="1" parent="1">
          <mxGeometry width="50" height="50" relative="1" as="geometry">
            <mxPoint x="320" y="-20" as="sourcePoint" />
            <mxPoint x="210" y="-20" as="targetPoint" />
          </mxGeometry>
        </mxCell>
        <mxCell id="f4y5HSsuFUhtfZBOtpe1-125" value="" style="endArrow=classic;html=1;rounded=0;" edge="1" parent="1">
          <mxGeometry width="50" height="50" relative="1" as="geometry">
            <mxPoint x="320" y="30" as="sourcePoint" />
            <mxPoint x="210" y="40" as="targetPoint" />
          </mxGeometry>
        </mxCell>
        <mxCell id="f4y5HSsuFUhtfZBOtpe1-127" value="" style="image;points=[];aspect=fixed;html=1;align=center;shadow=0;dashed=0;image=img/lib/allied_telesis/computer_and_terminals/Personal_Computer_Wireless.svg;" vertex="1" parent="1">
          <mxGeometry x="620" y="-144" width="63" height="64.2" as="geometry" />
        </mxCell>
        <mxCell id="f4y5HSsuFUhtfZBOtpe1-130" value="" style="endArrow=none;html=1;rounded=0;entryX=0.5;entryY=1;entryDx=0;entryDy=0;" edge="1" parent="1">
          <mxGeometry width="50" height="50" relative="1" as="geometry">
            <mxPoint x="430" y="230" as="sourcePoint" />
            <mxPoint x="428.45000000000005" y="100" as="targetPoint" />
          </mxGeometry>
        </mxCell>
        <mxCell id="f4y5HSsuFUhtfZBOtpe1-131" value="" style="endArrow=none;html=1;rounded=0;" edge="1" parent="1">
          <mxGeometry width="50" height="50" relative="1" as="geometry">
            <mxPoint x="140" y="230" as="sourcePoint" />
            <mxPoint x="430" y="230" as="targetPoint" />
          </mxGeometry>
        </mxCell>
        <mxCell id="f4y5HSsuFUhtfZBOtpe1-133" value="" style="endArrow=classic;html=1;rounded=0;" edge="1" parent="1">
          <mxGeometry width="50" height="50" relative="1" as="geometry">
            <mxPoint x="175.57999999999998" y="230" as="sourcePoint" />
            <mxPoint x="175.57999999999998" y="180" as="targetPoint" />
          </mxGeometry>
        </mxCell>
        <mxCell id="f4y5HSsuFUhtfZBOtpe1-135" value="" style="endArrow=classic;html=1;rounded=0;" edge="1" parent="1">
          <mxGeometry width="50" height="50" relative="1" as="geometry">
            <mxPoint x="248.58" y="230" as="sourcePoint" />
            <mxPoint x="249" y="180" as="targetPoint" />
            <Array as="points">
              <mxPoint x="248.58" y="210" />
            </Array>
          </mxGeometry>
        </mxCell>
        <mxCell id="f4y5HSsuFUhtfZBOtpe1-136" value="" style="endArrow=classic;html=1;rounded=0;" edge="1" parent="1">
          <mxGeometry width="50" height="50" relative="1" as="geometry">
            <mxPoint x="318.58" y="230" as="sourcePoint" />
            <mxPoint x="319" y="180" as="targetPoint" />
          </mxGeometry>
        </mxCell>
        <mxCell id="f4y5HSsuFUhtfZBOtpe1-139" value="" style="endArrow=none;html=1;rounded=0;" edge="1" parent="1">
          <mxGeometry width="50" height="50" relative="1" as="geometry">
            <mxPoint x="460" y="70" as="sourcePoint" />
            <mxPoint x="560" y="70" as="targetPoint" />
          </mxGeometry>
        </mxCell>
        <mxCell id="f4y5HSsuFUhtfZBOtpe1-140" value="" style="endArrow=none;html=1;rounded=0;" edge="1" parent="1">
          <mxGeometry width="50" height="50" relative="1" as="geometry">
            <mxPoint x="560" y="70" as="sourcePoint" />
            <mxPoint x="560" y="-110" as="targetPoint" />
          </mxGeometry>
        </mxCell>
        <mxCell id="f4y5HSsuFUhtfZBOtpe1-141" value="" style="endArrow=classic;html=1;rounded=0;" edge="1" parent="1">
          <mxGeometry width="50" height="50" relative="1" as="geometry">
            <mxPoint x="560" y="74.19999999999999" as="sourcePoint" />
            <mxPoint x="610" y="74" as="targetPoint" />
          </mxGeometry>
        </mxCell>
        <mxCell id="f4y5HSsuFUhtfZBOtpe1-142" value="" style="endArrow=classic;html=1;rounded=0;" edge="1" parent="1">
          <mxGeometry width="50" height="50" relative="1" as="geometry">
            <mxPoint x="560" y="10" as="sourcePoint" />
            <mxPoint x="610" y="10" as="targetPoint" />
          </mxGeometry>
        </mxCell>
        <mxCell id="f4y5HSsuFUhtfZBOtpe1-143" value="" style="endArrow=classic;html=1;rounded=0;" edge="1" parent="1">
          <mxGeometry width="50" height="50" relative="1" as="geometry">
            <mxPoint x="560" y="-48.56999999999999" as="sourcePoint" />
            <mxPoint x="610" y="-48.56999999999999" as="targetPoint" />
          </mxGeometry>
        </mxCell>
        <mxCell id="f4y5HSsuFUhtfZBOtpe1-144" value="" style="endArrow=classic;html=1;rounded=0;" edge="1" parent="1">
          <mxGeometry width="50" height="50" relative="1" as="geometry">
            <mxPoint x="560" y="-112.57" as="sourcePoint" />
            <mxPoint x="610" y="-112.57" as="targetPoint" />
          </mxGeometry>
        </mxCell>
        <mxCell id="f4y5HSsuFUhtfZBOtpe1-145" value="" style="image;html=1;image=img/lib/clip_art/networking/Router_128x128.png" vertex="1" parent="1">
          <mxGeometry x="381" y="30" width="80" height="80" as="geometry" />
        </mxCell>
        <mxCell id="f4y5HSsuFUhtfZBOtpe1-147" value="" style="endArrow=none;html=1;rounded=0;" edge="1" parent="1">
          <mxGeometry width="50" height="50" relative="1" as="geometry">
            <mxPoint x="450" y="100" as="sourcePoint" />
            <mxPoint x="461" y="330" as="targetPoint" />
          </mxGeometry>
        </mxCell>
        <mxCell id="f4y5HSsuFUhtfZBOtpe1-148" value="" style="endArrow=none;html=1;rounded=0;" edge="1" parent="1">
          <mxGeometry width="50" height="50" relative="1" as="geometry">
            <mxPoint x="461" y="330" as="sourcePoint" />
            <mxPoint x="851" y="330" as="targetPoint" />
          </mxGeometry>
        </mxCell>
        <mxCell id="f4y5HSsuFUhtfZBOtpe1-149" value="" style="image;html=1;image=img/lib/clip_art/computers/Netbook_128x128.png" vertex="1" parent="1">
          <mxGeometry x="490" y="220" width="80" height="80" as="geometry" />
        </mxCell>
        <mxCell id="f4y5HSsuFUhtfZBOtpe1-150" value="" style="image;html=1;image=img/lib/clip_art/computers/Netbook_128x128.png" vertex="1" parent="1">
          <mxGeometry x="560" y="220" width="80" height="80" as="geometry" />
        </mxCell>
        <mxCell id="f4y5HSsuFUhtfZBOtpe1-151" value="" style="image;html=1;image=img/lib/clip_art/computers/Netbook_128x128.png" vertex="1" parent="1">
          <mxGeometry x="640" y="220" width="80" height="80" as="geometry" />
        </mxCell>
        <mxCell id="f4y5HSsuFUhtfZBOtpe1-153" value="" style="endArrow=classic;startArrow=classic;html=1;rounded=0;" edge="1" parent="1">
          <mxGeometry width="50" height="50" relative="1" as="geometry">
            <mxPoint x="540" y="370" as="sourcePoint" />
            <mxPoint x="540" y="300" as="targetPoint" />
          </mxGeometry>
        </mxCell>
        <mxCell id="f4y5HSsuFUhtfZBOtpe1-154" value="" style="endArrow=classic;startArrow=classic;html=1;rounded=0;" edge="1" parent="1">
          <mxGeometry width="50" height="50" relative="1" as="geometry">
            <mxPoint x="618" y="370" as="sourcePoint" />
            <mxPoint x="618" y="300" as="targetPoint" />
          </mxGeometry>
        </mxCell>
        <mxCell id="f4y5HSsuFUhtfZBOtpe1-155" value="" style="endArrow=classic;startArrow=classic;html=1;rounded=0;" edge="1" parent="1">
          <mxGeometry width="50" height="50" relative="1" as="geometry">
            <mxPoint x="681" y="370" as="sourcePoint" />
            <mxPoint x="681" y="300" as="targetPoint" />
          </mxGeometry>
        </mxCell>
        <mxCell id="f4y5HSsuFUhtfZBOtpe1-156" value="" style="endArrow=classic;startArrow=classic;html=1;rounded=0;" edge="1" parent="1">
          <mxGeometry width="50" height="50" relative="1" as="geometry">
            <mxPoint x="750" y="370" as="sourcePoint" />
            <mxPoint x="750" y="300" as="targetPoint" />
          </mxGeometry>
        </mxCell>
        <mxCell id="f4y5HSsuFUhtfZBOtpe1-157" value="" style="image;points=[];aspect=fixed;html=1;align=center;shadow=0;dashed=0;image=img/lib/allied_telesis/computer_and_terminals/Personal_Computer_Wireless.svg;" vertex="1" parent="1">
          <mxGeometry x="520" y="380" width="63" height="64.2" as="geometry" />
        </mxCell>
        <mxCell id="f4y5HSsuFUhtfZBOtpe1-158" value="" style="image;points=[];aspect=fixed;html=1;align=center;shadow=0;dashed=0;image=img/lib/allied_telesis/computer_and_terminals/Personal_Computer_Wireless.svg;" vertex="1" parent="1">
          <mxGeometry x="600" y="380" width="63" height="64.2" as="geometry" />
        </mxCell>
        <mxCell id="f4y5HSsuFUhtfZBOtpe1-159" value="" style="image;points=[];aspect=fixed;html=1;align=center;shadow=0;dashed=0;image=img/lib/allied_telesis/computer_and_terminals/Personal_Computer_Wireless.svg;" vertex="1" parent="1">
          <mxGeometry x="670" y="380" width="63" height="64.2" as="geometry" />
        </mxCell>
        <mxCell id="f4y5HSsuFUhtfZBOtpe1-160" value="" style="image;points=[];aspect=fixed;html=1;align=center;shadow=0;dashed=0;image=img/lib/allied_telesis/computer_and_terminals/Personal_Computer_Wireless.svg;" vertex="1" parent="1">
          <mxGeometry x="737" y="380" width="63" height="64.2" as="geometry" />
        </mxCell>
        <mxCell id="f4y5HSsuFUhtfZBOtpe1-162" value="" style="endArrow=classic;html=1;rounded=0;" edge="1" parent="1" source="f4y5HSsuFUhtfZBOtpe1-157">
          <mxGeometry width="50" height="50" relative="1" as="geometry">
            <mxPoint x="550" y="540" as="sourcePoint" />
            <mxPoint x="552" y="510" as="targetPoint" />
          </mxGeometry>
        </mxCell>
        <mxCell id="f4y5HSsuFUhtfZBOtpe1-166" value="" style="image;html=1;image=img/lib/clip_art/computers/Printer_128x128.png" vertex="1" parent="1">
          <mxGeometry x="524.5" y="510" width="58.5" height="70" as="geometry" />
        </mxCell>
        <mxCell id="f4y5HSsuFUhtfZBOtpe1-169" value="" style="endArrow=none;html=1;rounded=0;" edge="1" parent="1">
          <mxGeometry width="50" height="50" relative="1" as="geometry">
            <mxPoint x="440" y="-52.9" as="sourcePoint" />
            <mxPoint x="520" y="-52.9" as="targetPoint" />
            <Array as="points" />
          </mxGeometry>
        </mxCell>
        <mxCell id="f4y5HSsuFUhtfZBOtpe1-170" value="" style="endArrow=classic;html=1;rounded=0;" edge="1" parent="1">
          <mxGeometry width="50" height="50" relative="1" as="geometry">
            <mxPoint x="520" y="-60" as="sourcePoint" />
            <mxPoint x="520" y="-130" as="targetPoint" />
          </mxGeometry>
        </mxCell>
        <mxCell id="f4y5HSsuFUhtfZBOtpe1-173" value="" style="shape=mxgraph.cisco.modems_and_phones.cable_modem;html=1;pointerEvents=1;dashed=0;fillColor=#036897;strokeColor=#ffffff;strokeWidth=2;verticalLabelPosition=bottom;verticalAlign=top;align=center;outlineConnect=0;" vertex="1" parent="1">
          <mxGeometry x="520" y="-170" width="74" height="35" as="geometry" />
        </mxCell>
        <mxCell id="f4y5HSsuFUhtfZBOtpe1-174" value="" style="endArrow=none;html=1;rounded=0;" edge="1" parent="1">
          <mxGeometry width="50" height="50" relative="1" as="geometry">
            <mxPoint x="440" y="-50" as="sourcePoint" />
            <mxPoint x="500" y="-190" as="targetPoint" />
            <Array as="points">
              <mxPoint x="460" y="-70" />
            </Array>
          </mxGeometry>
        </mxCell>
        <mxCell id="f4y5HSsuFUhtfZBOtpe1-175" value="" style="endArrow=none;html=1;rounded=0;" edge="1" parent="1">
          <mxGeometry width="50" height="50" relative="1" as="geometry">
            <mxPoint x="500" y="-190" as="sourcePoint" />
            <mxPoint x="660" y="-190" as="targetPoint" />
          </mxGeometry>
        </mxCell>
        <mxCell id="f4y5HSsuFUhtfZBOtpe1-177" value="" style="image;html=1;image=img/lib/clip_art/networking/Repeater_128x128.png" vertex="1" parent="1">
          <mxGeometry x="630" y="-290" width="80" height="80" as="geometry" />
        </mxCell>
        <mxCell id="f4y5HSsuFUhtfZBOtpe1-178" value="" style="image;html=1;image=img/lib/clip_art/networking/Repeater_128x128.png" vertex="1" parent="1">
          <mxGeometry x="540" y="-290" width="80" height="80" as="geometry" />
        </mxCell>
        <mxCell id="f4y5HSsuFUhtfZBOtpe1-179" value="" style="endArrow=classic;html=1;rounded=0;" edge="1" parent="1">
          <mxGeometry width="50" height="50" relative="1" as="geometry">
            <mxPoint x="570" y="-190" as="sourcePoint" />
            <mxPoint x="580" y="-210" as="targetPoint" />
          </mxGeometry>
        </mxCell>
        <mxCell id="f4y5HSsuFUhtfZBOtpe1-180" value="" style="endArrow=classic;html=1;rounded=0;" edge="1" parent="1">
          <mxGeometry width="50" height="50" relative="1" as="geometry">
            <mxPoint x="640" y="-180" as="sourcePoint" />
            <mxPoint x="660" y="-210" as="targetPoint" />
          </mxGeometry>
        </mxCell>
        <mxCell id="f4y5HSsuFUhtfZBOtpe1-183" value="" style="sketch=0;pointerEvents=1;shadow=0;dashed=0;html=1;strokeColor=none;fillColor=#505050;labelPosition=center;verticalLabelPosition=bottom;verticalAlign=top;outlineConnect=0;align=center;shape=mxgraph.office.devices.workstation_pc;" vertex="1" parent="1">
          <mxGeometry x="560" y="140" width="53" height="59" as="geometry" />
        </mxCell>
        <mxCell id="f4y5HSsuFUhtfZBOtpe1-185" value="" style="fontColor=#0066CC;verticalAlign=top;verticalLabelPosition=bottom;labelPosition=center;align=center;html=1;outlineConnect=0;fillColor=#CCCCCC;strokeColor=#6881B3;gradientColor=none;gradientDirection=north;strokeWidth=2;shape=mxgraph.networks.copier;" vertex="1" parent="1">
          <mxGeometry x="737" y="220" width="63" height="70" as="geometry" />
        </mxCell>
      </root>
    </mxGraphModel>
  </diagram>
</mxfile>
